<svg xmlns="http://www.w3.org/2000/svg" xmlns:xlink="http://www.w3.org/1999/xlink" width="590" height="286"><defs><radialGradient id="a" cy="100%" r="106.833%" fx="50%" fy="100%"><stop offset="0%" stop-color="#FF7854"/><stop offset="100%" stop-color="#FD267D"/></radialGradient><path id="c" d="M20.73 203.23c-11.258 0-20.47-9.213-20.47-20.474V20.668C.26 9.408 9.472.194 20.73.194h66.354c11.26 0 20.471 9.214 20.471 20.474v162.088c0 11.261-9.212 20.474-20.47 20.474H20.73z"/><filter id="b" width="200%" height="200%" x="-50%" y="-50%" filterUnits="objectBoundingBox"><feOffset dx="3" dy="4" in="SourceAlpha" result="shadowOffsetOuter1"/><feColorMatrix in="shadowOffsetOuter1" values="0 0 0 0 0 0 0 0 0 0 0 0 0 0 0 0 0 0 0.128821332 0"/></filter><linearGradient id="d" x1="100%" x2="0%" y1="0%" y2="100%"><stop offset="0%" stop-color="#01DF8A"/><stop offset="100%" stop-color="#7CF4F5"/></linearGradient><linearGradient id="e" x1="9.677%" x2="91.1%" y1="89.861%" y2="7.892%"><stop offset="0%" stop-color="#FF7854"/><stop offset="100%" stop-color="#FD267D"/></linearGradient><rect id="f" width="87.57" height="111.868" x="12.276" y="9.34" rx="6"/><filter id="g" width="200%" height="200%" x="-50%" y="-50%" filterUnits="objectBoundingBox"><feOffset dx="-3" dy="3" in="SourceAlpha" result="shadowOffsetOuter1"/><feColorMatrix in="shadowOffsetOuter1" values="0 0 0 0 0.457199372 0 0 0 0 0.514418153 0 0 0 0 0.531489158 0 0 0 0.211645154 0"/></filter><path id="i" d="M.194 33.236h50.053V.51H.194v32.726z"/><linearGradient id="j" x1="100%" x2="0%" y1="0%" y2="100%"><stop offset="0%" stop-color="#FF7854"/><stop offset="100%" stop-color="#FD267D"/></linearGradient></defs><g fill="none" fill-rule="evenodd"><path fill="#DAE2E7" d="M161.4 220.527c0-9-6.9-15.9-15.3-15.9h-13.2v-102.6c0-15.6-14.7-24.6-30.6-22.8-10.5 0-21.3 5.7-27 14.4l-72 111.3c-2.1 3.6-3.3 7.5-3.3 11.7 0 11.4 8.4 19.5 18.3 19.5h78.9v29.1c0 9.6 8.1 17.7 17.7 17.7 10.2 0 18-8.1 18-17.7v-29.1h13.2c8.4 0 15.3-6.9 15.3-15.6zm-64.2-15.9H36.9l60.3-91.5v91.5zm427.7 0h-60.3l60.3-91.5v91.5zm64.2 15.9c0-9-6.9-15.9-15.3-15.9h-13.2v-102.6c0-15.6-14.7-24.6-30.6-22.8-10.5 0-21.3 5.7-27 14.4l-72 111.3c-2.1 3.6-3.3 7.5-3.3 11.7 0 11.4 8.4 19.5 18.3 19.5h78.9v29.1c0 9.6 8.1 17.7 17.7 17.7 10.2 0 18-8.1 18-17.7v-29.1h13.2c8.4 0 15.3-6.9 15.3-15.6z"/><circle cx="294.55" cy="181.55" r="103.55" fill="url(#a)"/><path fill="#EDD0B3" d="M362.745 197.932V170.27c0-16.521-11.41-30.04-25.358-30.04-20.93 0-27.093 14.633-28.903 35.687-6.767-12.568-20.04-21.112-35.311-21.112-22.138 0-40.083 17.949-40.083 40.09 0 21.591 17.069 39.189 38.447 40.049v48.43a106.939 106.939 0 0 0 22.437 2.386c20.76 0 40.12-5.96 56.5-16.23v-44.827c7.372-5.736 12.271-15.601 12.271-26.77zM229.17 94.635l-24.008-10.077c-5.91-2.48-12.779.328-15.26 6.24-2.48 5.913.328 12.78 6.24 15.262l14.907 6.256a107.249 107.249 0 0 1 0 .001l9.99 4.192c5.913 2.481 12.779-.325 15.26-6.239 2.48-5.914-.327-12.78-6.24-15.262l-.888-.373z"/><g transform="translate(223.118 .117)"><use xlink:href="#c" fill="#000" filter="url(#b)"/><use xlink:href="#c" fill="#383F45"/></g><path fill="#F6FAFD" d="M228 172.784h97.356V19H228z"/><path fill="#DAE2E7" d="M284.885 189.324a7.86 7.86 0 1 1-15.72 0 7.86 7.86 0 1 1 15.72 0"/><path fill="url(#d)" d="M290.243 159.45l-10.484-9.682a7.717 7.717 0 0 1-1.897-5.09c0-4.509 2.98-7.781 7.088-7.781 2.202 0 3.388.826 5.295 2.694 1.902-1.865 3.087-2.689 5.29-2.689 4.106 0 7.088 3.273 7.088 7.779a7.719 7.719 0 0 1-1.907 5.103l-.413.442-10.06 9.223z"/><path fill="url(#e)" d="M270.625 138.883a2.702 2.702 0 0 0-3.845 0l-5.355 4.697-5.356-4.697a2.702 2.702 0 0 0-3.845 0 2.764 2.764 0 0 0 0 3.881l4.652 5.409-4.652 5.408a2.764 2.764 0 0 0 0 3.882 2.698 2.698 0 0 0 3.845 0l5.356-4.697 5.355 4.697a2.698 2.698 0 0 0 3.845 0 2.764 2.764 0 0 0 0-3.882l-4.652-5.408 4.652-5.409a2.764 2.764 0 0 0 0-3.881"/><path fill="#EDD0B3" d="M233.555 172.546c6.411 0 11.657-5.246 11.657-11.658 0-6.414-5.246-11.66-11.657-11.66h-9.815c-6.413 0-11.658 5.246-11.658 11.66 0 6.412 5.245 11.658 11.658 11.658h9.815zm4.499 5.561h-9.815c-6.413 0-11.658 5.246-11.658 11.658 0 6.414 5.245 11.66 11.658 11.66h9.815c6.411 0 11.657-5.246 11.657-11.66 0-6.412-5.246-11.658-11.657-11.658"/><g transform="translate(199 4)"><mask id="h" fill="#fff"><use xlink:href="#f"/></mask><g transform="rotate(-14 56.06 65.274)"><use xlink:href="#f" fill="#000" filter="url(#g)"/><use xlink:href="#f" fill="#FFF"/></g><g mask="url(#h)"><path fill="#FFD7D7" d="M54.437 83.595l-.011 8.24 12.05 12.377-5.675-22.762z"/><path fill="#FFE9E9" d="M67.38 80.368l3.902 7.264-4.806 16.58-5.675-22.762z"/><path fill="#FFBDBD" d="M67.391 80.41c.589 2.36-1.834 4.996-5.411 5.888-3.577.892-6.955-.298-7.543-2.658-.588-2.36 1.835-4.996 5.412-5.888 3.577-.892 6.954.298 7.542 2.658"/><path fill="#FFD7D7" d="M69.953 87.704l-14.297 3.564c-9.461 2.36-15.18 12.1-12.771 21.758l.391 1.571c.374 1.5 1.867 2.417 3.336 2.051l43.242-10.781c1.468-.367 2.356-1.878 1.982-3.377l-.391-1.57c-2.408-9.659-12.03-15.575-21.492-13.216"/><g transform="rotate(-14 421.98 -109.958)"><mask id="k" fill="#fff"><use xlink:href="#i"/></mask><path fill="url(#j)" d="M43.501.51c0 .03.047.059.047.089 0 4.674-8.243 7.649-18.435 7.649-10.145 0-18.292-2.942-18.366-7.586C2.64 3.985.194 8.402.194 13.266v16.626c0 1.446 1.436 3.345 3.384 3.345H46.87c1.948 0 3.377-1.9 3.377-3.345V13.266C50.247 8.327 47.72 3.85 43.5.51" mask="url(#k)"/></g><path fill="#FFE9E9" d="M76.724 50.242c4.038 16.197-6.825 32.85-14.935 34.873-8.246 2.056-25.52-7.583-29.559-23.78-4.038-16.195 2.649-31.808 14.936-34.872 12.286-3.063 25.52 7.583 29.558 23.78"/><path fill="#FFD7D7" d="M61.789 85.115c-8.246 2.056-25.52-7.583-29.559-23.779-4.038-16.197 2.648-31.81 14.935-34.873"/><path fill="#FFE9E9" d="M24.626 19.843c.189.756-.26 1.52-1 1.704-.742.185-1.495-.279-1.684-1.035-.189-.757.26-1.52 1-1.705.742-.184 1.495.279 1.684 1.036"/></g></g><path fill="#EDD0B3" d="M223.739 143.91h9.816c6.412 0 11.658-5.246 11.658-11.658 0-6.413-5.246-11.66-11.658-11.66h-9.816c-6.41 0-11.656 5.247-11.656 11.66 0 6.412 5.245 11.659 11.656 11.659m98.475-51.631a4.882 4.882 0 0 0-6.663-1.729c-10.384 6.108-13.883 19.604-7.776 29.99l27.537 46.824 23.075-13.575-36.173-61.51z"/></g></svg>